<?xml version="1.0" encoding="UTF-8"?>
<svg id="Layer_2" data-name="Layer 2" xmlns="http://www.w3.org/2000/svg" viewBox="0 0 326.52 118.6">
  <defs>
    <style>
      .cls-1 {
        fill: #fff;
      }
    </style>
  </defs>
  <g id="Layer_1-2" data-name="Layer 1">
    <g>
      <path class="cls-1" d="m148.93,30.6c.44.28.89.56,1.34.83,1.41.85,1.56,1.24,1.32,2.85-.46,3.13-1.37,6.16-2.16,9.2-1.37,5.27-2.82,10.51-4.22,15.77-.64,2.39-1.23,4.8-1.83,7.2-.34,1.34-1.09,2.37-2.24,3.13-.78.52-1.56,1.04-2.34,1.57-.45.31-.93.59-1.33,1.16.51.08.83-.15,1.16-.28,2.19-.88,4.31-1.95,6.55-2.72,3.49-1.2,7.07-2.03,10.69-2.68.86-.15,1.19-.56,1.36-1.36.5-2.35,1.08-4.68,1.59-7.03.17-.81.58-1.35,1.34-1.67.73-.3,1.42-.68,2.16-.95,3.51-1.28,7.13-1.31,10.77-.89,1.44.17,2.87.6,4.1,1.46.79.55,1.49,1.21,1.7,2.17.39,1.78-.07,4.44-2.03,5.71-1.59,1.04-3.3,1.82-5.16,2.16-4.43.82-8.94,1.02-13.4,1.58-2.12.27-4.25.51-6.32,1.04-4.16,1.05-8.19,2.47-12.09,4.27-1.53.71-3.05,1.42-4.69,2.19.51.36.89.24,1.25.23,1.5-.04,3-.16,4.5-.15,7.92.04,15.83-.22,23.73-.9,4-.35,7.99-.77,11.92-1.63,3.43-.74,6.79-1.68,9.74-3.68,3.43-2.32,5.72-5.41,6.1-9.65.21-2.28-.46-4.34-2.18-5.92-1.17-1.07-2.52-1.88-4.12-2.22-1.06-.23-2.12-.5-3.18-.76-.27-.07-.57-.1-.81-.43.44-.11.8-.22,1.16-.29,2.18-.48,4.24-1.27,6.18-2.38,2.05-1.17,3.87-2.63,5.07-4.69,1.13-1.93,1.72-4.04,1.06-6.26-.63-2.09-1.9-3.73-3.89-4.75-1.41-.73-2.88-1.28-4.41-1.68-3.04-.79-6.15-.97-9.26-1.05-2.55-.06-5.1-.08-7.65.11-2.2.17-4.42.14-6.64.22-4.13.13-8.23.67-12.37.57-.86-.02-1.75.08-2.62.29.07.16.08.25.13.28Zm12.97,16.58c.63-2.66,1.4-5.29,1.92-7.98.04-.18.08-.37.12-.55.45-2.02.26-1.81,2.23-1.97,2.69-.22,5.39-.44,8.09-.26,1.45.09,2.92.15,4.34.54.91.25,1.8.56,2.54,1.16,1.08.86,1.52,1.92,1.25,3.36-.71,3.76-4.01,5.81-6.98,6.28-2.97.47-5.97.47-8.97.46-1.24,0-2.48.01-3.71,0-1-.01-1.05-.08-.82-1.03Z"/>
      <path class="cls-1" d="m36.69,57.95c-1.28,2.18-2.22,4.5-2.71,7-.39,2-.28,3.97.33,5.89.83,2.62,2.75,4.25,5.17,5.33,2.5,1.12,5.17,1.54,7.89,1.62,3.61.09,7.19-.28,10.76-.86,6.02-.98,11.9-2.52,17.69-4.38,5.68-1.83,11.29-3.87,16.73-6.35,2.83-1.3,5.72-2.48,8.49-3.91,5.87-3.02,11.81-5.92,17.44-9.4,7.1-4.39,14.04-8.99,19.92-15,.55-.56,1.16-1.07,1.74-1.61.86-.8,1.71-1.61,2.57-2.42-.04-.05-.08-.09-.11-.14-.31.19-.62.38-.92.58-.75.5-1.48,1.02-2.25,1.5-2.84,1.77-5.84,3.23-8.8,4.79-5.85,3.08-11.77,5.99-17.85,8.6-5.73,2.46-11.59,4.56-17.44,6.71-4.06,1.49-8.18,2.78-12.32,3.97-6.13,1.75-12.3,3.38-18.69,4.02-3.67.37-7.33.59-11.01.1-1.99-.27-3.9-.83-5.6-1.93-2.6-1.68-3.66-4.16-3.29-7.14.44-3.52,2-6.58,4.36-9.23.26-.29.63-.52.72-.96-.39-.15-.62.1-.85.26-.63.41-1.26.82-1.84,1.3-4.03,3.32-7.47,7.17-10.12,11.69Z"/>
      <path class="cls-1" d="m128.96,100.73c-5.54,1-11.1,1.84-16.71,2.36-2.62.25-5.24.43-7.86.52-3.37.11-6.75.06-10.13-.09-4.2-.19-8.39-.5-12.56-.97-4-.45-7.92-1.29-11.81-2.32-.23-.06-.54-.06-.58-.42.26-.26.61-.29.93-.38.84-.22,1.68-.41,2.5-.66,8.65-2.62,16.67-6.59,24.21-11.55,6.64-4.36,12.65-9.52,18.46-14.91,4.41-4.1,8.31-8.67,12.28-13.18.09-.1.22-.22-.04-.38-.79.66-1.56,1.37-2.39,2-4.57,3.48-9.14,6.96-13.9,10.18-5.07,3.43-10.32,6.57-15.68,9.54-8.7,4.82-17.69,8.94-27.23,11.79-6.29,1.88-12.68,3.1-19.29,2.88-2.85-.1-5.62-.57-8.22-1.69-3.36-1.46-5.88-3.84-7.25-7.31-.08-.2-.09-.45-.52-.6.2,1.91.55,3.66,1.06,5.38.8,2.7,2.34,4.95,4.46,6.78,2.81,2.42,5.99,4.27,9.46,5.57,3.38,1.27,6.84,2.27,10.35,3.09,7,1.65,14.13,2.32,21.31,2.52,2.89.08,5.78,0,8.67.06,3.19.06,6.38-.13,9.56-.29,1.2-.06,2.4-.1,3.59-.25,3.01-.39,6.05-.55,9.05-1.04,3.85-.63,7.72-1.16,11.51-2.13,6.92-1.78,13.67-4.05,20.18-7.02.25-.11.54-.17.72-.52-.2.02-.31.02-.41.05-4.51,1.31-9.13,2.15-13.74,2.98Z"/>
      <path class="cls-1" d="m51.03,59.88c.11.04.21.08.32.11,1.74.54,1.83.5,1.65-1.29-.19-1.99-.15-3.98-.12-5.97.02-1.33.2-1.48,1.51-1.5,1.99-.02,3.97-.15,5.95-.39,1.38-.17,2.76-.32,4.14-.45,1.01-.1,1.21.06,1.32,1.05.1.89.16,1.79.26,2.69.19,1.72.37,3.44.75,5.12.17.74.79.92,1.73.63.72-.22.38-.72.27-1.1-.67-2.27-1.15-4.59-1.48-6.93-.23-1.63-.12-1.8,1.48-2.09.04,0,.07-.01.11-.02,2.83-.4,5.61-1.01,8.41-1.59,1.76-.37,3.51-.8,5.27-1.18.77-.17.82-.12,1.04.61.09.29.15.58.21.88.31,1.62.6,3.25.93,4.87.17.85.41,1.68.76,2.47.24.54.66.34,1.06.24.4-.1.72-.26.59-.77-.08-.33-.16-.66-.23-.99-.53-2.3-1.28-4.56-1.73-6.88-.2-1.03-.14-1.11.89-1.42.18-.05.36-.09.54-.14,2.57-.7,5.12-1.47,7.64-2.34,3.7-1.27,7.27-2.86,10.93-4.21,1.19-.44,1.2-.45,1.67.77.74,1.93,1.46,3.86,2.02,5.85.4,1.41.43,1.41,1.87.93,1.93-.64,3.79-1.45,5.64-2.27.93-.41.96-.47.52-1.44-.59-1.3-1.21-2.58-1.83-3.87-.46-.95-.95-1.88-1.4-2.83-.29-.62-.24-.74.39-1.05.74-.36,1.51-.68,2.25-1.04.44-.22.78-.2,1.05.25.12.19.25.37.38.56,1.3,1.89,2.39,3.91,3.43,5.95.42.82.52.88,1.3.53,1.89-.84,3.76-1.71,5.62-2.61.84-.41.83-.54.28-1.37-.96-1.44-2.06-2.77-3.14-4.12-3.59-4.49-7.77-8.35-12.55-11.55-.3-.2-.58-.33-.93-.13-1.14.66-2.28,1.31-3.41,1.98-.41.24-.35.53-.02.8.15.12.3.23.44.35,2.21,1.82,4.27,3.78,6.06,6.02.44.55.92,1.08,1.24,1.76-.55.38-1.1.62-1.66.81-2.17.75-1.68.8-2.87-.85-.15-.21-.3-.43-.45-.65-1.5-2.07-2.96-4.16-4.62-6.11-.31-.36-.56-.71-1.12-.4-1.22.67-2.46,1.3-3.66,1.99-.71.4-.71.48-.3,1.12,1.53,2.37,2.81,4.88,3.98,7.44.55,1.22.55,1.2-.67,1.82-2.22,1.13-4.61,1.81-6.94,2.66-3.81,1.39-7.68,2.61-11.55,3.82-1.39.43-1.42.39-1.61-1.04-.46-3.38-.91-6.77-1.33-10.16-.08-.67-.03-1.35-.05-2.03,0-.43.21-.71.6-.85.42-.15.84-.32,1.28-.44,3.51-1,6.92-2.27,10.34-3.52.95-.35,1.9-.7,2.86-1.02.52-.18,1.53.56,1.53,1.09,0,.21-.16.32-.31.43-.33.25-.68.48-.99.74-.33.28-.76.49-.87.95.27.22.47.06.66-.05,5.55-3.33,11.16-6.57,16.78-10.04-.63-.39-1.05-.19-1.43,0-.81.4-1.62.79-2.39,1.27-.88.55-1.71.62-2.65.15-1.58-.79-3.27-1.3-4.96-1.84-4.79-1.55-9.65-2.52-14.72-2.29-3.39.16-6.72.6-9.97,1.63-2.48.79-4.77,2-7.13,3.08-5.45,2.49-9.82,6.34-13.61,10.88-4.74,5.68-7.56,12.22-8.56,19.55-.32,2.31-.28,4.63-.18,6.96.06,1.47.06,1.52,1.45,2Zm54.41-37.62c.47.31.44.5.02.87-.87.76-1.12.77-1.94-.07-1.38-1.42-2.98-2.6-4.43-3.99,2.28.74,4.37,1.86,6.35,3.2Zm-23.08,23.09c-4.58,1.31-9.22,2.33-13.92,3.1-.11.02-.22.03-.33.04-.76.08-.81.04-.83-.77-.01-.41,0-.82,0-1.25.2-3.55.52-7.09,1.38-10.56.27-1.08.81-1.66,1.89-1.92,3.43-.82,6.83-1.7,10.25-2.57.5-.13.79-.03.84.54.04.41.17.81.18,1.22.08,3.72.67,7.38,1.24,11.05.13.84.11.88-.69,1.11Zm-2.63-26.07c.41-.28.84-.52,1.31-.63,2.84-.63,5.69-.88,8.59-.37,2.17.38,4.03,1.41,5.68,2.81.86.72,1.62,1.56,2.4,2.38.56.58.53.72-.22.99-1.66.59-3.32,1.18-5.01,1.71-1.9.59-3.78,1.23-5.61,2.02-.97.42-1.98.7-3.01.91-.69.15-.79.07-.8-.65-.01-.86-.05-1.74.06-2.59.23-1.76.03-3.53.27-5.28.1-.75-.11-.92-.88-.95-1.26-.05-1.54.17-1.5,1.47.04,1.65.16,3.3.25,4.94.05.86.12,1.72.15,2.58.03.97-.04,1.08-.97,1.35-2.12.62-4.25,1.22-6.39,1.81-1.33.37-2.67.71-4.09,1.08-.13-.58.08-.91.2-1.25,1.88-5.12,5.06-9.24,9.57-12.34Zm-4.04,1.21c.11.17-.02.28-.12.37-3.17,3.19-5.58,6.87-7.21,11.06-.41,1.06-1.03,1.63-2.16,1.84-1.99.38-3.96.87-5.94,1.3-.43.09-.88.11-1.48.19,2.28-4.16,13.38-13.79,16.9-14.76Zm-22.32,28.13c.54-3.66,1.57-7.17,3.38-10.44.44-.8.99-1.28,1.96-1.45,2.4-.43,4.76-1.03,7.14-1.55.22-.05.44-.09.66-.11.49-.05.71.2.65.67-.07.52-.17,1.04-.3,1.55-.63,2.52-.86,5.1-1.03,7.68-.07,1.05-.13,2.1-.21,3.14-.06.75-.19.91-.94,1-2.53.28-5.05.68-7.61.72-.67.01-1.34.11-2.08.17-.16-.02-.39-.02-.61-.06-1.02-.16-1.17-.32-1.02-1.32Z"/>
      <path class="cls-1" d="m318.77,58.43c-5.65-2.79-11.52-4.86-17.74-6.05-8.51-1.63-17.08-2.42-25.73-2.54-4.84-.07-9.68.24-14.52.42-2.74.1-5.48.14-8.22.28-3.18.16-6.36.4-9.54.63-2.43.18-4.86.41-7.29.58-2.36.17-4.7.54-7.05.71-4.57.34-9.1.97-13.65,1.49-3.69.43-7.36,1.01-10.97,1.95-2.11.56-4.19,1.22-6.02,2.47-1.42.97-2.6,2.11-3.16,3.83-.41,1.25-.77,2.51-1.04,3.8-.24,1.14-.48,2.28-.76,3.41-.34,1.36-1.03,2.49-2.28,3.22-.19.11-.51.17-.43.58.16-.02.31-.03.44-.07.39-.12.78-.26,1.17-.39,3.46-1.19,6.68-2.9,9.89-4.62,2.71-1.45,5.38-3,8.17-4.31,4.27-1.99,8.76-3.36,13.34-4.41,3.22-.74,6.46-1.38,9.73-1.84,3.68-.52,7.36-1.02,11.04-1.51,2.53-.34,5.05-.71,7.59-.96,3.1-.29,6.21-.53,9.31-.8,4-.35,8.01-.66,12.02-.76,5.86-.15,11.72-.14,17.57.21,1.24.07,2.47.22,3.7.31,2.25.16,4.47.53,6.7.8,2.61.32,5.21.73,7.74,1.45,6.09,1.73,11.98,3.94,17.42,7.24.09.05.2.06.3.09-2.46-1.95-4.94-3.84-7.75-5.22Z"/>
      <path class="cls-1" d="m40.47,87.96c2.65.91,5.42,1.17,8.2,1.32,4.12.22,8.17-.32,12.18-1.19,8.65-1.88,17.03-4.61,25.14-8.15,3.03-1.32,6.08-2.6,8.97-4.21,6.5-3.62,12.81-7.55,19.07-11.56,7.96-5.09,15.17-11.04,21.31-18.25,1.11-1.31,2.13-2.69,3.37-3.89-.07-.06-.14-.11-.2-.17-.12.08-.25.16-.36.25-3.98,3.32-8.08,6.48-12.31,9.49-5.67,4.03-11.59,7.65-17.78,10.83-3.88,1.99-7.86,3.76-11.79,5.64-4.95,2.36-9.94,4.62-15.04,6.63-9.01,3.55-18.24,6.26-27.88,7.43-4.21.51-8.4.55-12.56-.19-3.1-.55-5.89-1.8-7.75-4.54-.1-.15-.23-.3-.54-.12.04,1.92.34,3.83,1.37,5.55,1.53,2.57,3.84,4.18,6.62,5.13Z"/>
      <path class="cls-1" d="m308.83,69.79c-.18-.88-.35-1.77-.53-2.65-.49-2.51-1.01-5-1.44-7.52-.28-1.64-.22-1.65-1.86-2.02-.26-.06-.51-.11-.77-.16-3.92-.73-7.88-1.1-11.85-1.26-5.74-.24-11.48-.05-17.22-.37-2.94-.17-5.92.2-8.88.34-.3.01-.59.12-.89.13-.64.03-1.02.38-1.29.93-.38.77-.74,1.57-1.22,2.28-2.04,3.06-3.8,6.3-5.84,9.36-1.13,1.69-2.48,3.1-4.35,3.96-.54.25-1.07.54-1.61.82-.19.1-.43.19-.31.49h17.67c-.51-.59-.84-.95-1.14-1.33-.6-.75-.73-1.51-.18-2.38,1.39-2.19,2.74-4.4,4.1-6.6.26-.41.58-.66,1.09-.68,1.01-.04,2.02-.14,3.04-.14,5.74-.04,11.49-.06,17.23-.08.84,0,.87,0,1.06.82.35,1.54.65,3.08.98,4.63q.64,3.02-1.97,4.76c-.36.24-.81.39-1.02.83.8.3,20.06.37,21.03.05-.74-.54-1.43-1.04-2.11-1.54-.92-.67-1.51-1.56-1.73-2.68Z"/>
      <path class="cls-1" d="m222.28,43.31c.67-.49,1-1.05,1.37-1.55.83-1.13,1.92-1.88,3.24-2.32.71-.24,1.44-.43,2.17-.58,3.06-.64,6.17-.82,9.27-1.06.59-.05.65.04.53.64-.03.15-.09.29-.12.43-.81,3.2-1.64,6.4-2.44,9.6-.42,1.67-.36,1.77,1.35,1.65,3.63-.25,7.25-.6,10.88-.84,1.25-.08,1.26-.28,1.48-1.26.66-2.97,1.31-5.94,1.95-8.91.29-1.32.28-1.32,1.58-1.2.22.02.45.04.67.03,3.02-.08,5.98.45,8.94.95,2,.34,3.33,1.45,3.92,3.42.04.14.08.29.14.43.07.17.1.38.34.39.23,0,.31-.19.38-.36.4-.98.61-2.01.8-3.04.48-2.58.92-5.17,1.42-7.75.35-1.83.39-1.81-1.5-1.81-12.5.02-25,.04-37.5.05-1.58,0-3.14.13-4.71.36-.98.14-1.48.59-1.69,1.49-.04.18-.11.36-.15.54-.71,2.92-1.43,5.83-2.11,8.76-.13.57-.36,1.14-.21,1.94Z"/>
      <path class="cls-1" d="m270.34,47.63c.22.43.75.22,1.14.22,3.08.04,6.16.04,9.24.09.57,0,.92-.18,1.2-.64.69-1.16,1.4-2.31,2.1-3.47,1.32-2.17,2.65-4.34,3.95-6.46.25.04.25.16.27.27.69,3.19,1.31,6.4,1.83,9.62.2,1.24.3,1.36,1.57,1.48,1.01.09,2.01.24,3.01.42,3.43.62,6.88,1.19,10.24,2.15.56.16.66.04.57-.56-.02-.15-.07-.29-.1-.44-.78-4.09-1.54-8.19-2.18-12.31-.34-2.23-.39-4.49-.86-6.7-.27-1.29-.28-1.33-1.61-1.33-7.81-.01-15.62-.02-23.44-.02-.28,0-.6-.1-.9.28.62.48,1.25.93,1.85,1.42,1.45,1.19,1.57,2.2.48,3.68-1.25,1.69-2.51,3.37-3.73,5.09-1.43,2.03-2.81,4.08-4.19,6.14-.22.32-.66.67-.45,1.08Z"/>
      <path class="cls-1" d="m91.41,99.1c-.18-.01-.41-.2-.58.13.17.07.3.15.44.18,3.33.79,6.67,1.26,10.14,1.06,4.22-.24,8.14-1.45,11.87-3.24,5.62-2.71,10.22-6.67,13.71-11.89,2.25-3.36,4.14-6.9,5.29-10.78.96-3.23,1.81-6.5,2.03-9.91.21-3.27.22-6.53-.15-9.78-.06-.52-.05-1.09-.33-1.62-.39.19-.42.52-.54.78-.68,1.38-1.28,2.79-2.09,4.11-1.12,1.83-2.37,3.56-3.76,5.2-.46.55-.69,1.06-.55,1.82.48,2.58.2,5.16-.2,7.73-.28,1.82-.79,3.59-1.32,5.35-1.22,4.07-3,7.83-5.8,11.09-2.07,2.41-4.54,4.24-7.43,5.53-.3.13-.6.31-.95.21-.03-.19.09-.3.18-.41.73-.91,1.47-1.81,1.98-2.86,1.32-2.69,2.11-5.54,2.39-8.51.07-.78.33-1.34,1-1.76,1.24-.77,2.42-1.66,3.7-2.37,1.82-1.01,2.08-2.65,2.11-4.47-.45-.03-.6.27-.8.47-1.52,1.57-3.24,2.91-4.98,4.22-.55.41-1.27.52-1.75.87-.53.39-.87,1.09-1.45,1.52-1.66,1.24-3.4,2.33-5.19,3.37-2.53,1.47-5.13,2.82-7.68,4.25-1.45.81-1.43,1.09-.04,2.04,2.11,1.44,4.23,2.86,6.34,4.29.23.16.58.23.56.69-1.15.73-2.4,1.33-3.75,1.68-4.07,1.07-8.22,1.28-12.4.99Zm11.3-8.13c-.65-.62-.62-.86.21-1.2,3.75-1.56,7.17-3.73,10.64-5.8.19-.11.36-.27.6-.23.19.27.14.54.07.78-.89,3.46-1.96,6.85-4.29,9.67-.63.76-.75.84-1.61.45-2.05-.94-3.97-2.1-5.61-3.67Z"/>
      <path class="cls-1" d="m199.99,54.34c.62-.13,1.25-.28,1.85-.47,3.31-1.05,6.74-1.47,10.16-1.92,1.54-.21,1.61-.18,1.96-1.65.79-3.32,1.55-6.65,2.34-9.98.37-1.57.69-3.15,1.24-4.68.42-1.16,1.11-2.11,2.08-2.88.77-.61,1.62-1.08,2.47-1.57.37-.22.8-.38,1.14-.94-.36-.04-.54-.07-.72-.07-5.82-.05-11.64-.11-17.45-.15-1.09,0-2.17.1-3.26.16-.26.01-.57,0-.68.3-.13.36.17.55.41.71.37.26.77.47,1.16.7,1.17.69,1.83,1.64,1.54,3.07-.1.51-.16,1.04-.29,1.55-1.06,3.95-2.14,7.9-3.22,11.84-.49,1.77-1.06,3.53-1.34,5.35-.1.66,0,.77.61.64Z"/>
      <path class="cls-1" d="m108.5,12.34c1.75.88,3.39,1.94,5.05,2.96,1.73,1.06,3.48,2.08,5.34,2.91.66.29,1.25.35,1.93.05,1.14-.49,2.25-1.03,3.36-1.59,2.58-1.31,5.16-2.61,7.75-3.9.81-.4.96-.35,1.12.42.7,3.46,1.8,6.83,2.47,10.29.04.23.02.52.4.59.05-.18.09-.32.12-.46,1.01-4.47,2-8.94,2.86-13.44.15-.79.5-1.28,1.21-1.62.75-.35,1.45-.8,2.18-1.18,2.08-1.07,4.04-2.31,5.89-3.73.6-.46,1.16-.95,1.57-1.6.54-.87.39-1.36-.58-1.74-.93-.37-1.89-.42-2.87-.16-1.65.43-3.18,1.16-4.68,1.92-2.01,1.01-3.99,2.1-5.96,3.19-.61.33-1.16.38-1.82.16-1.21-.41-2.43-.79-3.67-1.08-3.92-.93-7.75-2.11-11.44-3.72-.31-.14-.62-.34-.96-.27-1.05.22-2.04.63-3.19,1.16.89.47,1.66.65,2.31,1.09.84.57,1.7,1.11,2.57,1.63,2.59,1.52,5.19,3.02,7.78,4.55.81.48.81.65,0,1.11-1.92,1.1-3.86,2.17-5.79,3.26-.51.29-1.01.4-1.61.24-.91-.23-1.85-.29-2.79-.35-1.23-.07-2.47-.19-3.69-.36-1.74-.24-3.47-.54-5.27-.83.09.33.27.4.43.48Z"/>
      <path class="cls-1" d="m174.31,99.24c.39-.46.75-.94.96-1.52.09-.25.19-.51-.04-.74-.24-.24-.5-.09-.72.04-.48.3-.96.6-1.4.94-2.54,2.01-5.44,3.32-8.44,4.43-1.6.59-3.26.89-4.97.78-1.14-.07-1.61-.6-1.62-1.72,0-.72.18-1.41.42-2.09.75-2.11,1.91-3.99,3.2-5.8.43-.61,1.05-.94,1.78-1.09,2.39-.47,4.79-.9,7.24-.94,1.5-.03,3-.21,4.37-.93.42-.22,1.04-.41,1-.95-.04-.56-.69-.6-1.14-.74-1.87-.59-3.78-.43-5.69-.27-1.48.12-2.96.4-4.47.43-.06-.35.1-.56.23-.78,1.14-1.86,2.32-3.69,3.4-5.58.61-1.08,1.44-1.57,2.66-1.75,3.42-.5,6.84-.9,10.3-.89.89,0,1.71-.22,2.43-.76.87-.66.85-1.24-.09-1.83-.75-.47-1.61-.63-2.48-.66-2.25-.09-4.5-.05-6.73.33-3.84.66-7.7,1.25-11.57,1.71-1.34.16-2.7.23-3.99.67-.57.19-1.14.38-1.59.81-.49.48-.46.82.14,1.14.54.29,1.15.35,1.75.36,1.13.02,2.25,0,3.38.03.7.02.79.17.54.83-.13.35-.3.69-.49,1.01-.77,1.38-1.59,2.72-2.4,4.07-.84,1.41-1.9,2.49-3.47,3.05-.42.15-.81.4-1.17.66-.53.38-.5.66.06,1.02.09.06.2.09.3.15.71.39.73.43.39,1.11-.1.2-.23.39-.34.58-1.44,2.56-2.7,5.2-3.25,8.11-.4,2.12.48,3.57,2.57,4.18,1.33.39,2.68.31,4.02.1,4.99-.77,9.32-3.01,13.27-6.05.6-.46,1.17-.95,1.65-1.52Z"/>
      <path class="cls-1" d="m215.17,90.13c-.3-1.33-1.05-2-2.39-2.19-.56-.08-1.12-.05-1.68.06-1.15.24-2.23.65-3.27,1.18-.42.22-.82.52-1.31.59-.51-1.29-.93-1.52-2.32-1.29-1.54.25-2.95.85-4.25,1.7-.34.22-.65.5-.96.77-.3.26-.24.48.07.72,1,.76,1,.78.45,1.87-.2.4-.43.79-.65,1.18-.99,1.77-2,3.52-2.97,5.3-1.53,2.81-2.67,5.79-3.92,8.72-.93,2.18-1.6,4.44-2.08,6.76-.11.52-.17,1.04-.13,1.57.06.7.39,1.21,1.07,1.44.61.21,1.21,0,1.68-.6.23-.29.44-.62.59-.95.35-.79.68-1.59.99-2.39,1.37-3.62,3.06-7.09,4.83-10.53.5-.97.52-.94,1.55-.49,1.79.8,3.61.93,5.46.18,1.33-.53,2.58-1.2,3.67-2.15,2.06-1.79,3.89-3.75,4.97-6.31.71-1.66.99-3.38.6-5.17Zm-4.96,3.51c-1.32,3.28-3.44,5.86-6.64,7.48-.5.25-1.02.49-1.6.51-.79.03-1.19-.48-.96-1.24.12-.39.31-.77.5-1.13,1.36-2.57,2.92-4.98,5.32-6.74.73-.53,1.48-1.02,2.34-1.33,1-.36,1.4-.05,1.36,1.03-.01.49-.13.97-.31,1.42Z"/>
      <path class="cls-1" d="m245.67,65.49c.47-2.01,1-4.01,1.48-6.01.23-.97.09-1.13-.93-1.08-.52.03-1.04.12-1.57.17-3.4.3-6.78.81-10.16,1.28-1.25.17-1.24.21-1.53,1.39-.64,2.62-1.32,5.24-1.94,7.87-.34,1.43-1.13,2.52-2.3,3.36-.52.37-1.07.7-1.6,1.06-.2.14-.51.2-.48.55,1.13.24,18.48.17,19.31-.09-.07-.34-.28-.46-.45-.58-1.07-.75-1.28-1.73-.95-2.97.43-1.63.72-3.3,1.11-4.94Z"/>
      <path class="cls-1" d="m248.64,97.08c-.68-.13-.98.13-1.28.33-.57.36-1.12.75-1.68,1.14-1.34.92-2.77,1.65-4.28,2.23-1.23.47-2.49.55-3.77.39-.91-.11-1.55-.84-1.53-1.66.01-.7.3-.96,1.41-1.12,3.02-.42,5.5-1.94,7.78-3.83,1.14-.95,1.91-2.2,2.37-3.63.53-1.65-.29-3.84-2.43-4.22-.79-.14-1.55-.21-2.34,0-4.18,1.08-7.45,3.46-9.93,6.95-1.32,1.86-2.03,3.92-1.92,6.23.1,1.96,1.19,3.41,3.05,4.03,1.32.44,2.66.44,4.01.21,2.96-.5,5.54-1.84,7.83-3.75,1.07-.89,1.86-2.02,2.7-3.29Zm-11.45-1.45c.76-1.52,1.79-2.85,2.98-4.05.61-.61,1.27-1.17,2.05-1.56.23-.12.47-.24.72-.31.63-.19.94.04.95.68,0,.43-.13.82-.34,1.17-1.37,2.32-3.31,3.93-5.91,4.71-.17.05-.37.16-.52-.02-.17-.21-.03-.43.07-.62Z"/>
      <path class="cls-1" d="m195.41,99.21c.19-.31.44-.62.28-1.02-.33-.15-.51.08-.71.23-.58.42-1.14.85-1.71,1.28-.48.36-.99.68-1.56.89-1.56.58-2.65.05-3.17-1.51-.04-.11-.06-.22-.1-.32-.56-1.97-.57-1.98,1.14-3.1,2.29-1.51,4.52-3.1,6.74-4.71.76-.55,1.46-1.19,1.99-1.97.47-.69.26-1.19-.55-1.42-.36-.1-.67,0-.98.14-.75.35-1.45.78-2.14,1.25-1.8,1.23-3.6,2.45-5.41,3.66-.47.31-.95.61-1.44.89-.57.32-.67.28-.87-.35-.29-.89-.54-1.8-.85-2.68-.67-1.92-2.3-2.7-4.2-2.04-1.27.44-1.52.91-1.11,2.2.48,1.5.96,3,1.41,4.51.3,1.03.1,1.67-.79,2.29-1.69,1.19-3.48,2.23-5.19,3.38-1.06.72-2.07,1.5-2.94,2.44-.32.34-.77.67-.44,1.25.29.51.96.81,1.56.6.53-.18,1.05-.43,1.52-.73,1.48-.95,2.94-1.95,4.41-2.93.84-.56,1.7-1.11,2.54-1.66.39-.26.69-.23.88.25.16.42.33.84.51,1.25,1.2,2.79,3.78,3.73,6.49,2.34,1.99-1.02,3.54-2.52,4.7-4.42Z"/>
      <path class="cls-1" d="m233.63,90.72c.22-.48.4-.97.42-1.51.03-.87-.32-1.43-1.12-1.77-.53-.23-1.08-.28-1.65-.15-.97.21-1.86.58-2.66,1.16-1.06.77-2.08,1.61-3,2.55-.33.34-.68.65-1.07,1.03-.05-.42.18-.58.31-.79.62-.98,1.25-1.96,1.9-2.93.74-1.11.2-1.4-.91-1.51-.22-.02-.44.06-.66.11-1.76.36-3.05,1.41-4.05,2.83-1.54,2.17-3.06,4.36-4.35,6.7-1.09,1.98-2.1,3.99-2.65,6.19-.32,1.26.37,1.96,1.66,1.72,1.12-.21,2.02-.75,2.61-1.78.99-1.73,2.13-3.36,3.43-4.87,1.23-1.43,2.68-2.62,4.21-3.72.41-.29.6-.24.81.26.73,1.73,2.12,2.08,3.59.93.26-.21.52-.43.74-.69.97-1.15,1.83-2.38,2.46-3.76Z"/>
      <path class="cls-1" d="m277.21,86.08c-.64-.26-1.33-.23-2-.26-.56.04-1.13.02-1.68.12-2.35.42-4.53,1.32-6.58,2.54-.88.52-1.63,1.2-2.17,2.09-.6,1-.57,1.78.14,2.71.55.72,1.24,1.3,1.97,1.84.67.48,1.35.95,1.91,1.57.73.81.75,1.2-.07,1.87-1.72,1.42-3.67,2.21-5.93,1.81-1.15-.2-1.86.34-2.51,1.12-.31.38-.26.74.11,1.09.58.54,1.26.76,2.05.76,3.45-.02,6.54-1.18,9.44-2.94.64-.39,1.24-.86,1.72-1.44,1.62-1.94,1.46-3.24-.29-4.86-.55-.5-1.21-.88-1.84-1.29-.48-.31-.93-.63-1.3-1.07-.37-.44-.36-.88,0-1.32.27-.32.61-.56.98-.74,1.35-.64,2.77-1,4.26-.64,1.1.26,1.81-.23,2.38-1.06.56-.83.33-1.51-.59-1.88Z"/>
      <path class="cls-1" d="m258.5,94.62c-.81-.6-1.69-1.13-2.51-1.72-1.01-.73-1.06-1.36-.09-2.16,1.33-1.1,2.89-1.65,4.61-1.23,1.03.25,1.75-.06,2.4-.79.9-1.01.62-2.01-.7-2.37-.61-.17-1.25-.26-1.9-.18-2.89.37-5.49,1.48-7.89,3.1-.59.4-1.09.92-1.56,1.46-1.21,1.41-1.18,2.76.08,4.12.25.27.55.51.85.74.6.46,1.22.88,1.81,1.34,1.7,1.32,1.66,2.07-.21,3.12-1.4.79-2.93,1.15-4.54,1.13-.78-.01-1.5.12-2.11.63-.35.29-.69.61-.58,1.13.11.52.59.97,1.2,1.03.48.05.97,0,1.46,0,3.83-.06,7.21-1.31,10.01-3.96,2.09-1.99,1.97-3.67-.34-5.39Z"/>
      <path class="cls-1" d="m117.14,108.96c-2.13.46-4.27.78-6.42,1.11-6.5.99-13.03,1.6-19.59,1.71-3.98.07-7.96.07-11.93-.06-3.82-.13-7.63-.48-11.42-1.04-4.61-.69-9.18-1.49-13.63-2.9-1.24-.39-2.46-.82-3.74-1.25.04.14.05.23.09.26.15.11.32.2.48.29,4.01,2.11,8.26,3.55,12.66,4.6,6.9,1.65,13.93,2.11,20.97,2.39,4.36.18,8.7-.13,13.02-.68,5.36-.68,10.68-1.64,15.89-3.09,1.36-.38,2.71-.79,4.11-1.19-.19-.25-.34-.18-.49-.15Z"/>
      <path class="cls-1" d="m209.83,67.54c.38-.37.69-.79.87-1.3.14-.4-.03-.61-.43-.49-.46.14-.91.34-1.35.55-2.95,1.4-5.75,3.09-8.73,4.43-4.25,1.91-8.69,3.3-13.15,4.63-.38.11-.84.06-1.18.55.21.04.32.09.42.08,1.9-.25,3.81-.42,5.68-.78,4.15-.79,8.32-1.13,12.53-.98,2.25.08,4.5-.09,6.75.16.18.02.39.02.46-.21.05-.16-.07-.29-.19-.38-.33-.25-.66-.49-1-.73-.5-.34-.98-.7-1.37-1.16-1.03-1.24-1.04-2.4-.02-3.65.21-.26.46-.49.7-.73Z"/>
      <path class="cls-1" d="m30.03,74.35c-.04-.48-.3-.66-.77-.52-.25.08-.5.15-.75.23-2.12.65-4.21,1.38-6.31,2.04-7.29,2.31-14.48,4.94-21.73,7.37-.17.06-.37.09-.46.28.12.16.27.09.41.05,3.68-.87,7.37-1.73,11.05-2.63,5.57-1.37,11.22-2.41,16.75-3.95,1.92-.54,1.93-.53,1.83-2.54,0-.11,0-.22-.02-.34Z"/>
      <path class="cls-1" d="m150.9,91.62c-.35-.66-.37-.68-1.02-.37-2.95,1.42-6.05,2.46-9.18,3.38-7.99,2.36-16.14,4.09-24.36,5.45-1.24.2-2.51.22-3.75.6.17.26.36.14.53.15,1.13.04,2.24-.16,3.37-.23,3.11-.19,6.21-.42,9.28-.98,6.98-1.27,13.89-2.82,20.65-5.01,1.46-.47,2.87-1.09,4.31-1.63.51-.19.62-.49.37-.96-.07-.13-.13-.27-.2-.4Z"/>
      <path class="cls-1" d="m29.47,66.99c-2.8,1.08-5.63,2.1-8.4,3.26-6.45,2.68-12.9,5.35-19.4,7.89-.37.14-.78.24-1.21.63.54.04.88-.13,1.22-.24,1.93-.6,3.86-1.22,5.8-1.82,6.89-2.11,13.79-4.19,20.66-6.34,1.97-.61,1.86-.37,1.95-2.42,0-.15.04-.3.05-.45.04-.67-.05-.75-.68-.51Z"/>
      <path class="cls-1" d="m36.38,55.7c.11-.2.4-.39.1-.75-8.54,2.97-16.81,6.69-25.25,9.96.04.07.07.13.11.2,1.4-.41,2.79-.85,4.2-1.23,5.31-1.46,10.63-2.9,15.94-4.34q3.24-.88,4.88-3.83Z"/>
      <path class="cls-1" d="m22.3,55.32c5.71-1.6,11.41-3.21,17.18-4.59.56-.13,1.05-.38,1.45-.8,1.06-1.12,2.24-2.11,3.42-3.09.15-.12.43-.22.24-.52-1.87.45-22.01,8.43-22.6,8.95.08.13.2.08.3.05Z"/>
    </g>
  </g>
</svg>